# xmcd CD database file
#
# Track frame offsets:
#	150
#	19906
#	37996
#	56367
#	84977
#	93832
#	116650
#	141099
#	165236
#	201312
#	208459
#
# Disc length: 3147 seconds
#
# Revision: 0
# Processed by: cddbd v1.5.2PL0 Copyright (c) Steve Scherf et al.
# Submitted via: CDex 1.70beta2
#
DISCID=8e0c490b
DTITLE=Antizario -  It's Great to be Fine
DYEAR=2006
DGENRE=Jazz
TTITLE0=the Devil Theory
TTITLE1=Madame Butterfly
TTITLE2=Polygamy and Plastic
TTITLE3=Shock and Awe
TTITLE4=Mustachio's Seduction by Candlelight (Intermission 1)
TTITLE5=Go Find Yourself
TTITLE6=I'm Lost
TTITLE7=Jump the Shark
TTITLE8=Can You Feel It?
TTITLE9=Movie Trivia (Intermission 2)
TTITLE10=A Fine Piece of Sound
EXTD=YEAR: 2006
EXTT0=
EXTT1=
EXTT2=
EXTT3=
EXTT4=
EXTT5=
EXTT6=
EXTT7=
EXTT8=
EXTT9=
EXTT10=
PLAYORDER=
